# xmcd
#
# Track frame offsets:
#	150
#	17010
#	30718
#	49118
#	80648
#	95145
#	111265
#	130558
#	147880
#	165108
#
# Disc length: 2454 seconds
#
# Revision: 5
# Processed by: cddbd v1.5.2PL0 Copyright (c) Steve Scherf et al.
# Submitted via: audiograbber 1.83.01
#
DISCID=7909940a
DTITLE=Detroit Spinners - Spinners
DYEAR=1973
DGENRE=Soul Oldies
TTITLE0=Just Can't Get You Out Of My Mind
TTITLE1=Just You And Me Baby
TTITLE2=Don't Let The Green Grass Fool You
TTITLE3=I Could Never (Repay Your Love)
TTITLE4=I'll Be Around
TTITLE5=One Of A Kind (Love Affair)
TTITLE6=We Belong Together
TTITLE7=Ghetto Child
TTITLE8=How Could I Let You Get Away
TTITLE9=Could It Be I'm Falling In Love
EXTD=
EXTT0=
EXTT1=
EXTT2=
EXTT3=
EXTT4=
EXTT5=
EXTT6=
EXTT7=
EXTT8=
EXTT9=
PLAYORDER=
